<?xml version="1.0" encoding="iso-8859-1"?>
<!-- Generator: Adobe Illustrator 19.0.0, SVG Export Plug-In . SVG Version: 6.00 Build 0)  -->
<svg version="1.1" id="Layer_1" xmlns="http://www.w3.org/2000/svg" xmlns:xlink="http://www.w3.org/1999/xlink" x="0px" y="0px"
	 viewBox="0 0 512 512" style="enable-background:new 0 0 512 512;" xml:space="preserve">
<path style="fill:#A5A5A5;" d="M503.916,433.853L503.916,433.853c0,23.812-19.304,43.116-43.116,43.116H51.2
	c-23.812,0-43.116-19.304-43.116-43.116l0,0c0-23.812,19.304-43.116,43.116-43.116h409.6
	C484.612,390.737,503.916,410.041,503.916,433.853z"/>
<path style="fill:#CCCAC4;" d="M471.579,132.042v237.137c0,23.812-19.304,43.116-43.116,43.116H83.537
	c-23.812,0-43.116-19.304-43.116-43.116V132.042c0-23.812,19.304-43.116,43.116-43.116h344.926
	C452.275,88.926,471.579,108.23,471.579,132.042z"/>
<path style="fill:#F2EFE2;" d="M428.463,390.737H83.537c-11.906,0-21.558-9.651-21.558-21.558V132.042
	c0-11.906,9.651-21.558,21.558-21.558h344.926c11.906,0,21.558,9.651,21.558,21.558v237.137
	C450.021,381.085,440.37,390.737,428.463,390.737z"/>
<path style="fill:#CFDFE2;" d="M374.568,315.284H137.432c-35.718,0-64.674-28.956-64.674-64.674l0,0
	c0-35.718,28.955-64.674,64.674-64.674h237.137c35.718,0,64.674,28.955,64.674,64.674l0,0
	C439.242,286.329,410.287,315.284,374.568,315.284z"/>
<path style="fill:#FC8059;" d="M427.217,313.706l-33.082,41.92c-3.322,4.209-8.707,4.209-12.029,0l-33.082-41.92
	c-1.661-2.105-1.661-5.518,0-7.622c0.798-1.011,1.88-1.578,3.007-1.578h22.537V91.621c0-22.289-18.132-40.421-40.421-40.421
	c-21.382,0-38.928,16.69-40.321,37.726h-16.2c1.412-29.957,26.221-53.895,56.522-53.895c31.204,0,56.589,25.385,56.589,56.589
	v212.884h33.473c1.127,0,2.21,0.568,3.007,1.578C428.878,308.188,428.878,311.601,427.217,313.706z"/>
<path style="fill:#4C4C4C;" d="M477.048,385.298c1.687-5.073,2.615-10.488,2.615-16.119V132.042c0-28.231-22.969-51.2-51.2-51.2
	h-32.326c-1.412-29.957-26.222-53.895-56.522-53.895c-30.3,0-55.11,23.938-56.522,53.895H83.537c-28.231,0-51.2,22.969-51.2,51.2
	v237.137c0,5.631,0.927,11.047,2.614,16.119C14.441,392.122,0,411.417,0,433.853c0,28.231,22.969,51.2,51.2,51.2h409.6
	c28.231,0,51.2-22.969,51.2-51.2C512,411.417,497.558,392.122,477.048,385.298z M417.798,312.589l-29.678,37.609l-29.678-37.609
	H417.798z M48.505,132.042c0-19.317,15.716-35.032,35.032-35.032H353.01c4.466,0,8.084-3.618,8.084-8.084
	c0-4.466-3.618-8.084-8.084-8.084h-53.716c1.393-21.036,18.94-37.726,40.321-37.726c22.289,0,40.421,18.132,40.421,40.421v212.884
	h-28.004c-3.611,0-7.02,1.697-9.353,4.653c-3.97,5.028-3.97,12.611-0.001,17.639l33.081,41.921
	c3.126,3.961,7.631,6.232,12.361,6.232c4.73,0,9.234-2.271,12.361-6.232l33.079-41.92c3.97-5.028,3.97-12.611,0.005-17.632
	c-2.333-2.962-5.744-4.661-9.358-4.661h-28.004V97.011h32.258c19.317,0,35.032,15.715,35.032,35.032v237.137
	c0,19.317-15.715,35.032-35.032,35.032H83.537c-19.316,0-35.032-15.715-35.032-35.032V132.042z M460.8,468.884H51.2
	c-19.316,0-35.032-15.715-35.032-35.032c0-16.258,11.075-30.111,26.431-33.961c9.35,12.431,24.219,20.488,40.937,20.488h344.926
	c16.718,0,31.588-8.056,40.937-20.488c15.356,3.85,26.431,17.703,26.431,33.961C495.832,453.17,480.117,468.884,460.8,468.884z
	 M172.463,444.632c0,4.466-3.62,8.084-8.084,8.084H78.147c-4.465,0-8.084-3.618-8.084-8.084s3.62-8.084,8.084-8.084h86.232
	C168.844,436.547,172.463,440.166,172.463,444.632z M441.937,444.632c0,4.466-3.618,8.084-8.084,8.084H272.168
	c-4.466,0-8.084-3.618-8.084-8.084s3.618-8.084,8.084-8.084h161.684C438.318,436.547,441.937,440.166,441.937,444.632z
	 M243.604,444.632c0,4.466-3.62,8.084-8.084,8.084h-1.078c-4.465,0-8.084-3.618-8.084-8.084s3.62-8.084,8.084-8.084h1.078
	C239.985,436.547,243.604,440.166,243.604,444.632z M210.189,444.632c0,4.466-3.62,8.084-8.084,8.084h-1.078
	c-4.465,0-8.084-3.618-8.084-8.084s3.62-8.084,8.084-8.084h1.078C206.57,436.547,210.189,440.166,210.189,444.632z M127.194,241.987
	c4.465,0,8.084,3.618,8.084,8.084v1.078c0,4.466-3.62,8.084-8.084,8.084c-4.465,0-8.084-3.618-8.084-8.084v-1.078
	C119.11,245.606,122.729,241.987,127.194,241.987z M151.446,251.149v-1.078c0-4.466,3.62-8.084,8.084-8.084
	c4.465,0,8.084,3.618,8.084,8.084v1.078c0,4.466-3.62,8.084-8.084,8.084C155.066,259.234,151.446,255.615,151.446,251.149z
	 M236.596,251.149v-1.078c0-4.466,3.62-8.084,8.084-8.084c4.465,0,8.084,3.618,8.084,8.084v1.078c0,4.466-3.62,8.084-8.084,8.084
	C240.215,259.234,236.596,255.615,236.596,251.149z M277.016,259.234c-4.466,0-8.084-3.618-8.084-8.084v-1.078
	c0-4.466,3.618-8.084,8.084-8.084s8.084,3.618,8.084,8.084v1.078C285.1,255.615,281.481,259.234,277.016,259.234z M84.135,271.571
	c-11.558-11.558-11.558-30.364,0-41.923l51.887-51.887c3.157-3.156,8.276-3.156,11.432,0c3.157,3.158,3.157,8.276,0,11.433
	l-51.887,51.887c-5.254,5.254-5.254,13.801,0,19.055l51.887,51.887c3.157,3.158,3.157,8.276,0,11.433
	c-1.578,1.578-3.648,2.367-5.716,2.367c-2.068,0-4.138-0.789-5.716-2.367L84.135,271.571z M256.757,312.025l51.886-51.887
	c5.254-5.254,5.254-13.801,0-19.055l-51.886-51.887c-3.157-3.158-3.157-8.276,0-11.433c3.157-3.156,8.275-3.156,11.433,0
	l51.887,51.887c11.557,11.558,11.557,30.364,0,41.923l-51.887,51.887c-1.579,1.578-3.649,2.367-5.717,2.367
	c-2.069,0-4.138-0.789-5.716-2.367C253.598,320.3,253.598,315.182,256.757,312.025z M172.705,334.881l43.116-172.463
	c1.082-4.332,5.477-6.959,9.803-5.882c4.332,1.083,6.965,5.472,5.882,9.805L188.39,338.804c-0.918,3.672-4.215,6.126-7.836,6.126
	c-0.65,0-1.309-0.079-1.967-0.244C174.256,343.602,171.621,339.212,172.705,334.881z"/>
<g>
</g>
<g>
</g>
<g>
</g>
<g>
</g>
<g>
</g>
<g>
</g>
<g>
</g>
<g>
</g>
<g>
</g>
<g>
</g>
<g>
</g>
<g>
</g>
<g>
</g>
<g>
</g>
<g>
</g>
</svg>
